HIERARCHY
ROOT hip
{
  OFFSET 0 0 0
  CHANNELS 6 Xposition Yposition Zposition Zrotation Yrotation Xrotation
  JOINT abdomen
  {
    OFFSET 0 20.6881 -0.73152
    CHANNELS 3 Zrotation Xrotation Yrotation
    JOINT chest
    {
      OFFSET 0 11.7043 -0.48768
      CHANNELS 3 Zrotation Xrotation Yrotation
      JOINT neck
      {
        OFFSET 0 22.1894 -2.19456
        CHANNELS 3 Zrotation Xrotation Yrotation
        JOINT head
        {
          OFFSET -0.24384 7.07133 1.2192
          CHANNELS 3 Zrotation Xrotation Yrotation
          JOINT leftEye
          {
            OFFSET 4.14528 8.04674 8.04672
            CHANNELS 3 Zrotation Xrotation Yrotation
            End Site
            {
              OFFSET 1 0 0
            }
          }
          JOINT rightEye
          {
            OFFSET -3.6576 8.04674 8.04672
            CHANNELS 3 Zrotation Xrotation Yrotation
            End Site
            {
              OFFSET 1 0 0
            }
          }
        }
      }
      JOINT rCollar
      {
        OFFSET -2.68224 19.2634 -4.8768
        CHANNELS 3 Zrotation Xrotation Yrotation
        JOINT rShldr
        {
          OFFSET -8.77824 -1.95073 1.46304
          CHANNELS 3 Zrotation Xrotation Yrotation
          JOINT rForeArm
          {
            OFFSET -28.1742 -1.7115 0.48768
            CHANNELS 3 Zrotation Xrotation Yrotation
            JOINT rHand
            {
              OFFSET -22.5879 0.773209 7.07136
              CHANNELS 3 Zrotation Xrotation Yrotation
              JOINT rThumb1
              {
                OFFSET -1.2192 -0.487915 3.41376
                CHANNELS 3 Zrotation Xrotation Yrotation
                JOINT rThumb2
                {
                  OFFSET -3.37035 -0.52449 3.41376
                  CHANNELS 3 Zrotation Xrotation Yrotation
                  End Site
                  {
                    OFFSET -1.78271 -1.18214 1.43049
                  }
                }
              }
              JOINT rIndex1
              {
                OFFSET -7.75947 0.938293 5.60832
                CHANNELS 3 Zrotation Xrotation Yrotation
                JOINT rIndex2
                {
                  OFFSET -2.54057 -0.884171 1.56538
                  CHANNELS 3 Zrotation Xrotation Yrotation
                  End Site
                  {
                    OFFSET -1.62519 -0.234802 1.16502
                  }
                }
              }
              JOINT rMid1
              {
                OFFSET -8.24714 1.18213 3.41376
                CHANNELS 3 Zrotation Xrotation Yrotation
                JOINT rMid2
                {
                  OFFSET -3.10165 -0.590103 1.0647
                  CHANNELS 3 Zrotation Xrotation Yrotation
                  End Site
                  {
                    OFFSET -2.48547 -0.328903 0.83742
                  }
                }
              }
              JOINT rRing1
              {
                OFFSET -8.82822 0.546677 1.51678
                CHANNELS 3 Zrotation Xrotation Yrotation
                JOINT rRing2
                {
                  OFFSET -2.60934 -0.819778 -0.0198488
                  CHANNELS 3 Zrotation Xrotation Yrotation
                  End Site
                  {
                    OFFSET -2.33842 -0.294052 0.168128
                  }
                }
              }
              JOINT rPinky1
              {
                OFFSET -8.27202 -0.0477905 -0.4584
                CHANNELS 3 Zrotation Xrotation Yrotation
                JOINT rPinky2
                {
                  OFFSET -1.82734 -0.647385 -0.700984
                  CHANNELS 3 Zrotation Xrotation Yrotation
                  End Site
                  {
                    OFFSET -1.69225 -0.51767 -0.607171
                  }
                }
              }
            }
          }
        }
      }
      JOINT lCollar
      {
        OFFSET 2.68224 19.2634 -4.8768
        CHANNELS 3 Zrotation Xrotation Yrotation
        JOINT lShldr
        {
          OFFSET 8.77824 -1.95073 1.46304
          CHANNELS 3 Zrotation Xrotation Yrotation
          JOINT lForeArm
          {
            OFFSET 28.1742 -1.7115 0.48768
            CHANNELS 3 Zrotation Xrotation Yrotation
            JOINT lHand
            {
              OFFSET 22.5879 0.773209 7.07136
              CHANNELS 3 Zrotation Xrotation Yrotation
              JOINT lThumb1
              {
                OFFSET 1.2192 -0.487915 3.41376
                CHANNELS 3 Zrotation Xrotation Yrotation
                JOINT lThumb2
                {
                  OFFSET 3.37035 -0.52449 3.41376
                  CHANNELS 3 Zrotation Xrotation Yrotation
                  End Site
                  {
                    OFFSET 1.78271 -1.18214 1.43049
                  }
                }
              }
              JOINT lIndex1
              {
                OFFSET 7.75947 0.938293 5.60832
                CHANNELS 3 Zrotation Xrotation Yrotation
                JOINT lIndex2
                {
                  OFFSET 2.54057 -0.884171 1.56538
                  CHANNELS 3 Zrotation Xrotation Yrotation
                  End Site
                  {
                    OFFSET 1.62519 -0.234802 1.16502
                  }
                }
              }
              JOINT lMid1
              {
                OFFSET 8.24714 1.18213 3.41376
                CHANNELS 3 Zrotation Xrotation Yrotation
                JOINT lMid2
                {
                  OFFSET 3.10165 -0.590103 1.0647
                  CHANNELS 3 Zrotation Xrotation Yrotation
                  End Site
                  {
                    OFFSET 2.48547 -0.328903 0.83742
                  }
                }
              }
              JOINT lRing1
              {
                OFFSET 8.82822 0.546677 1.51678
                CHANNELS 3 Zrotation Xrotation Yrotation
                JOINT lRing2
                {
                  OFFSET 2.60934 -0.819778 -0.0198488
                  CHANNELS 3 Zrotation Xrotation Yrotation
                  End Site
                  {
                    OFFSET 2.33842 -0.294052 0.168128
                  }
                }
              }
              JOINT lPinky1
              {
                OFFSET 8.27202 -0.0477905 -0.4584
                CHANNELS 3 Zrotation Xrotation Yrotation
                JOINT lPinky2
                {
                  OFFSET 1.82734 -0.647385 -0.700984
                  CHANNELS 3 Zrotation Xrotation Yrotation
                  End Site
                  {
                    OFFSET 1.69225 -0.51767 -0.607171
                  }
                }
              }
            }
          }
        }
      }
    }
  }
  JOINT rButtock
  {
    OFFSET -8.77824 4.35084 1.2192
    CHANNELS 3 Zrotation Xrotation Yrotation
    JOINT rThigh
    {
      OFFSET 0 -1.70687 -2.19456
      CHANNELS 3 Zrotation Xrotation Yrotation
      JOINT rShin
      {
        OFFSET 0 -36.8199 0.73152
        CHANNELS 3 Zrotation Xrotation Yrotation
        JOINT rFoot
        {
          OFFSET 0.73152 -45.1104 -5.12064
          CHANNELS 3 Zrotation Xrotation Yrotation
          End Site
          {
            OFFSET -1.1221 -3.69964 12.103
          }
        }
      }
    }
  }
  JOINT lButtock
  {
    OFFSET 8.77824 4.35084 1.2192
    CHANNELS 3 Zrotation Xrotation Yrotation
    JOINT lThigh
    {
      OFFSET 0 -1.70687 -2.19456
      CHANNELS 3 Zrotation Xrotation Yrotation
      JOINT lShin
      {
        OFFSET 0 -36.8199 0.73152
        CHANNELS 3 Zrotation Xrotation Yrotation
        JOINT lFoot
        {
          OFFSET -0.73152 -45.1104 -5.12064
          CHANNELS 3 Zrotation Xrotation Yrotation
          End Site
          {
            OFFSET 1.1221 -3.69964 12.103
          }
        }
      }
    }
  }
}
MOTION
Frames:	4
Frame Time:	0.00833333
5.28431 91.9737 2.7296 -529.111 77.1201 -505.107 -1.747 -4.92871 2.06654 0.872501 -15.0822 1.06282 -6.40705 12.7223 3.45994 21.1112 -29.7809 13.3917 -0.0 0.0 0.0 -0.0 0.0 0.0 -1.52088e-13 -7.55267e-13 -8.85275e-14 86.4167 34.7471 -38.3171 -22.8444 -17.0798 46.1384 -0.00359152 -1.70395 -0.239547 1.64498e-09 5.6334e-10 5.51907e-10 2.8417e-09 9.71484e-10 9.43418e-10 1.64498e-09 5.63352e-10 5.51885e-10 7.73091 5.47488 0.417314 1.64498e-09 5.63348e-10 5.51907e-10 2.90554 0.965183 0.102902 1.64498e-09 5.6335e-10 5.5191e-10 10.2786 0.731801 0.0259123 1.64498e-09 5.63344e-10 5.51918e-10 2.22167 -0.733487 -0.20892 -1.52162e-13 -7.55267e-13 -8.87543e-14 -102.16 37.5065 47.4469 24.6533 -20.3712 -51.7465 1.02004 -27.4147 4.1803 -7.54704e-10 -2.12331e-11 7.29394e-10 -1.31444e-09 -4.32331e-11 1.24986e-09 -7.54709e-10 -2.12311e-11 7.29406e-10 -7.73091 5.47488 -0.417314 -7.54703e-10 -2.12329e-11 7.29394e-10 -2.90554 0.965183 -0.102902 -7.54709e-10 -2.12317e-11 7.29394e-10 -10.2786 0.731801 -0.0259123 -7.547e-10 -2.12298e-11 7.29385e-10 -2.22167 -0.733487 0.20892 -2.03217e-16 0.0 -3.88251e-19 -2.69295 -24.1084 6.85378 -0.118077 7.01836 -0.630038 10.4451 21.4508 -34.0093 2.03217e-16 0.0 3.88251e-19 -0.282958 -32.2724 -29.7058 0.0306965 17.05 -0.155108 -16.4106 23.2999 37.101
5.15885 91.9558 2.74945 -529.055 77.1707 -504.988 -1.7726 -4.48833 2.07877 0.889302 -15.1109 1.05911 -6.46871 12.7683 3.48636 20.9899 -29.4298 13.3243 -0.0 0.0 0.0 -0.0 0.0 0.0 -1.39876e-13 -9.7014e-13 -2.42801e-13 86.6208 34.6555 -38.5139 -22.7568 -16.9374 45.8878 -0.00348823 -1.683 -0.2366 2.0672e-09 4.6636e-10 3.45037e-10 3.57398e-09 8.0435e-10 5.85168e-10 2.06719e-09 4.66372e-10 3.45022e-10 7.73091 5.47488 0.417314 2.0672e-09 4.66368e-10 3.45036e-10 2.90554 0.965183 0.102902 2.06719e-09 4.66373e-10 3.45039e-10 10.2786 0.731801 0.0259123 2.0672e-09 4.66365e-10 3.45049e-10 2.22167 -0.733487 -0.20892 -1.39954e-13 -9.7014e-13 -2.42981e-13 -102.252 37.4628 47.4726 24.6972 -20.4607 -51.8961 1.03612 -27.6095 4.21518 -6.34997e-10 5.35973e-11 1.1028e-09 -1.11558e-09 8.36512e-11 1.89436e-09 -6.35002e-10 5.35982e-11 1.10281e-09 -7.73091 5.47488 -0.417314 -6.34996e-10 5.35963e-11 1.1028e-09 -2.90554 0.965183 -0.102902 -6.35002e-10 5.35986e-11 1.1028e-09 -10.2786 0.731801 -0.0259123 -6.34993e-10 5.36002e-11 1.10279e-09 -2.22167 -0.733487 0.20892 -2.03217e-16 0.0 -3.88251e-19 -2.74576 -24.2129 6.89285 -0.115456 6.90898 -0.610687 9.86435 20.1292 -34.7425 2.03217e-16 0.0 3.88251e-19 -0.233038 -32.3528 -29.768 0.0301873 17.0083 -0.162356 -16.2348 22.8091 37.3363
5.03812 91.9303 2.76858 -529.007 77.2203 -504.88 -1.80556 -4.06512 2.10082 0.887537 -15.1398 1.0564 -6.48168 12.7649 3.50196 20.8237 -28.9912 13.2109 -0.0 0.0 0.0 -0.0 0.0 0.0 -1.26813e-13 -1.04561e-12 -3.11595e-13 86.858 34.5502 -38.7074 -22.6665 -16.7919 45.6312 -0.00347502 -1.68296 -0.236593 2.16016e-09 3.92134e-10 2.39931e-10 3.73575e-09 6.76377e-10 4.04208e-10 2.16015e-09 3.92145e-10 2.39922e-10 7.73091 5.47488 0.417314 2.16016e-09 3.92141e-10 2.39931e-10 2.90554 0.965183 0.102902 2.16016e-09 3.92147e-10 2.39933e-10 10.2786 0.731801 0.0259123 2.16016e-09 3.92138e-10 2.39944e-10 2.22167 -0.733487 -0.20892 -1.26894e-13 -1.04561e-12 -3.11744e-13 -102.315 37.4417 47.5009 24.7363 -20.5412 -52.0307 1.04619 -27.7297 4.23679 -4.8474e-10 7.02477e-11 1.16071e-09 -8.57636e-10 1.12089e-10 1.99554e-09 -4.84745e-10 7.02481e-11 1.16071e-09 -7.73091 5.47488 -0.417314 -4.84738e-10 7.02458e-11 1.16071e-09 -2.90554 0.965183 -0.102902 -4.84745e-10 7.02488e-11 1.16071e-09 -10.2786 0.731801 -0.0259123 -4.84735e-10 7.02501e-11 1.16071e-09 -2.22167 -0.733487 0.20892 -2.03217e-16 0.0 -3.88251e-19 -2.79383 -24.3128 6.95394 -0.112471 6.7996 -0.589226 9.24581 18.8974 -35.3309 2.03217e-16 0.0 3.88251e-19 -0.181672 -32.4257 -29.7976 0.0297602 16.9522 -0.16956 -16.0701 22.4059 37.494
4.93489 91.9077 2.792 -528.839 77.291 -504.656 -1.85782 -3.6437 2.14556 0.86093 -15.1815 1.05766 -6.4235 12.6806 3.49869 20.5953 -28.4159 13.0241 -0.0 0.0 0.0 -0.0 0.0 0.0 -1.07388e-13 -9.16649e-13 -2.54259e-13 87.1459 34.4174 -38.9061 -22.5737 -16.6436 45.3698 -0.00359889 -1.71437 -0.241011 1.57946e-09 2.61979e-10 2.6062e-10 2.73117e-09 4.51591e-10 4.43584e-10 1.57945e-09 2.61988e-10 2.60612e-10 7.73091 5.47488 0.417314 1.57945e-09 2.61983e-10 2.60623e-10 2.90554 0.965183 0.102902 1.57946e-09 2.6199e-10 2.60621e-10 10.2786 0.731801 0.0259123 1.57946e-09 2.61983e-10 2.60631e-10 2.22167 -0.733487 -0.20892 -1.07471e-13 -9.1665e-13 -2.54397e-13 -102.346 37.4595 47.5428 24.7696 -20.6101 -52.1453 1.04685 -27.737 4.23813 -1.66127e-10 -3.30702e-12 6.98915e-10 -2.98953e-10 -1.14377e-11 1.2034e-09 -1.66132e-10 -3.30641e-12 6.98917e-10 -7.73091 5.47488 -0.417314 -1.66125e-10 -3.30944e-12 6.98905e-10 -2.90554 0.965183 -0.102902 -1.66133e-10 -3.3062e-12 6.98916e-10 -10.2786 0.731801 -0.0259123 -1.66121e-10 -3.30515e-12 6.98907e-10 -2.22167 -0.733487 0.20892 -2.03217e-16 0.0 -3.88251e-19 -2.84019 -24.3914 7.02887 -0.109241 6.67982 -0.567827 8.64985 17.8506 -35.7223 2.03217e-16 0.0 3.88251e-19 -0.131929 -32.4836 -29.7766 0.0294476 16.8889 -0.177099 -16.024 22.3342 37.4616
